<svg id="Layer_1" data-name="Layer 1" xmlns="http://www.w3.org/2000/svg" viewBox="0 0 86 86"><defs><style>.cls-1,.cls-2,.cls-3{fill:#397772;}.cls-2{font-size:6.71px;font-family:Cormorant-Bold, Cormorant;font-weight:700;}.cls-3{font-size:5.49px;font-family:Montserrat-Regular, Montserrat;}</style></defs><title>86x86ds</title><path class="cls-1" d="M55,48.27a20.84,20.84,0,0,1-3.61-6.94c0-.14-.15-.2-.35-.16s-.28.13-.24.27l.54,7.7a1.49,1.49,0,0,0,.11.65.94.94,0,0,0,.38.38,12.51,12.51,0,0,0,3.66,1.48,17.93,17.93,0,0,0,4.25.51c.59,0,1.16,0,1.72-.08v-1H61A7.4,7.4,0,0,1,55,48.27Z"/><path class="cls-1" d="M69.31,19.47q0-.65-.81-1A16.48,16.48,0,0,0,62,17.27h-.54a13.57,13.57,0,0,0-4.49.93,8.83,8.83,0,0,0-3.88,2.88,7.49,7.49,0,0,0-1.48,4.68,7.51,7.51,0,0,0,1,4,10.37,10.37,0,0,0,2.5,2.85q1.48,1.16,4,2.77,1.28.78,2.31,1.47V31.9c-1.07-.67-1.95-1.27-2.63-1.8a10.79,10.79,0,0,1-2.48-2.64,6.3,6.3,0,0,1-1-3.58A5.82,5.82,0,0,1,56.8,19.8,5.37,5.37,0,0,1,61,18.18l.48,0a6.33,6.33,0,0,1,5,2.59A13.85,13.85,0,0,1,69,26.31c0,.14.14.2.32.16s.27-.13.27-.27Z"/><path class="cls-1" d="M46.76,25.83A16.2,16.2,0,0,0,40.17,20a21.47,21.47,0,0,0-9.72-2.13q-.85,0-3.4.11-2.07.16-4.09.16l-1.39,0-2.33-.09L16.58,18q-.16,0-.16.32t.16.32a9.38,9.38,0,0,1,2.74.29,1.86,1.86,0,0,1,1.2,1,6.34,6.34,0,0,1,.32,2.34V51.14h.74l1.39,0q1.43,0,2.6.05l2,.11q2.07.16,3.67.16a19,19,0,0,0,9-2.15,16.5,16.5,0,0,0,6.51-6.11,17.13,17.13,0,0,0,2.42-9.11A15,15,0,0,0,46.76,25.83ZM42.48,43.5A12.2,12.2,0,0,1,37.7,48.7a13.72,13.72,0,0,1-7,1.78q-3.3,0-4.44-.93a3.93,3.93,0,0,1-1.14-3.21V22.43a3.8,3.8,0,0,1,.58-2.31,3,3,0,0,1,1.81-1A17.61,17.61,0,0,1,31,18.81,11.68,11.68,0,0,1,38,21a13.82,13.82,0,0,1,4.62,5.9,20.87,20.87,0,0,1,1.62,8.37A18.2,18.2,0,0,1,42.48,43.5Z"/><text class="cls-2" transform="translate(1.23 60.07)">DIZENGOFF SUITES HOTEL</text><text class="cls-3" transform="translate(30.78 66.01)">TEL AVIV</text></svg>